<svg xmlns="http://www.w3.org/2000/svg" width="20" height="20" viewBox="0 0 20 20"><path fill="#000" fill-rule="evenodd" d="M259.612 7362.448c.918.51 2.09.208 2.62-.676.529-.884.215-2.014-.702-2.524-.917-.51-2.09-.207-2.62.677-.529.883-.214 2.013.702 2.523m-3.925 11.95a5.76 5.76 0 0 1-2.36-.501l-1.333 2.3a8.63 8.63 0 0 0 5.92.539 2.588 2.588 0 0 1 1.31-1.831 2.779 2.779 0 0 1 2.3-.18c1.419-1.344 2.341-3.172 2.476-5.207l-2.733-.04c-.252 2.759-2.653 4.92-5.58 4.92m0-10.796c2.927 0 5.328 2.162 5.58 4.92l2.733-.04c-.135-2.035-1.057-3.863-2.476-5.207a2.78 2.78 0 0 1-2.3-.18 2.594 2.594 0 0 1-1.312-1.832 8.667 8.667 0 0 0-2.226-.291c-1.325 0-2.578.3-3.692.83l1.334 2.302a5.744 5.744 0 0 1 2.36-.502m-5.604 5.398c0-1.826.943-3.44 2.383-4.417l-1.403-2.263c-1.678 1.08-2.926 2.733-3.445 4.667.606.476.993 1.2.993 2.013 0 .812-.387 1.537-.993 2.013.519 1.935 1.767 3.587 3.445 4.668l1.403-2.264c-1.44-.977-2.383-2.59-2.383-4.417m9.53 6.552c-.918.51-1.233 1.64-.703 2.524.529.884 1.702 1.187 2.62.676.916-.51 1.23-1.64.7-2.524-.529-.883-1.701-1.186-2.618-.676m-13.694-8.4c-1.06 0-1.919.827-1.919 1.848 0 1.02.86 1.848 1.919 1.848 1.06 0 1.918-.827 1.918-1.848 0-1.021-.859-1.848-1.918-1.848" transform="translate(-244 -7359)"/></svg>