<svg xmlns="http://www.w3.org/2000/svg" enable-background="new 0 0 24 24" viewBox="0 0 24 24"><path d="M17,17c-1.103,0-2-0.897-2-2s0.897-2,2-2s2,0.897,2,2S18.103,17,17,17z M17,14c-0.551,0-1,0.448-1,1s0.449,1,1,1s1-0.448,1-1S17.551,14,17,14z"/><path d="M5.316,23.983c-1.534,0-2.887-0.465-3.861-1.438c-2.44-2.439-1.757-7.231,1.624-11.395c0.175-0.213,0.489-0.249,0.704-0.072c0.214,0.174,0.247,0.488,0.073,0.703c-3.002,3.696-3.73,8.02-1.693,10.057c2.338,2.338,7.415,1.069,11.314-2.828c0.921-0.921,1.71-1.922,2.346-2.975c0.142-0.236,0.449-0.313,0.687-0.169c0.236,0.143,0.312,0.45,0.169,0.687c-0.677,1.121-1.517,2.186-2.495,3.164C11.425,22.475,8.079,23.983,5.316,23.983z"/><path d="M6.453,18.327c-0.534,0-1.037-0.208-1.414-0.586l0,0l0,0l0,0c-0.378-0.378-0.586-0.88-0.586-1.414c0-0.535,0.208-1.037,0.586-1.414c0.753-0.755,2.071-0.757,2.828,0c0.378,0.377,0.586,0.879,0.586,1.414c0,0.534-0.208,1.036-0.586,1.414S6.987,18.327,6.453,18.327z M6.453,15.327c-0.267,0-0.518,0.104-0.707,0.293s-0.293,0.439-0.293,0.707c0,0.267,0.104,0.518,0.293,0.707l0,0c0.378,0.377,1.036,0.377,1.414,0c0.189-0.189,0.293-0.44,0.293-0.707c0-0.268-0.104-0.519-0.292-0.707C6.971,15.432,6.72,15.327,6.453,15.327z"/><path d="M6.067,15.382c-0.225,0-0.429-0.152-0.485-0.381C5.269,13.728,5.109,12.381,5.109,11c0-6.065,3.14-11,7-11c3.452,0,6.356,3.871,6.908,9.205c0.028,0.275-0.171,0.521-0.446,0.549c-0.281,0.03-0.52-0.171-0.549-0.445C17.533,4.571,14.991,1,12.109,1c-3.309,0-6,4.486-6,10c0,1.301,0.149,2.566,0.444,3.763c0.066,0.268-0.098,0.539-0.366,0.604C6.147,15.377,6.107,15.382,6.067,15.382z"/><path d="M10.487,11.163c-0.767,0-1.5-0.443-1.831-1.188c-0.217-0.488-0.23-1.031-0.039-1.53s0.566-0.893,1.055-1.109c0.488-0.216,1.033-0.23,1.53-0.039c0.498,0.192,0.892,0.566,1.109,1.055c0.217,0.488,0.23,1.032,0.039,1.53c-0.192,0.499-0.567,0.893-1.055,1.109C11.033,11.108,10.758,11.163,10.487,11.163z M10.484,8.163c-0.138,0-0.276,0.029-0.406,0.087c0,0,0,0,0,0C9.834,8.358,9.647,8.555,9.551,8.805c-0.096,0.249-0.089,0.521,0.02,0.765s0.305,0.432,0.554,0.527c0.25,0.097,0.522,0.09,0.766-0.02c0.244-0.108,0.431-0.305,0.527-0.555c0.096-0.249,0.089-0.521-0.019-0.765s-0.306-0.432-0.555-0.527C10.727,8.186,10.605,8.163,10.484,8.163z M9.875,7.793h0.01H9.875z"/><path d="M16.615,24.004c-1.258,0-2.608-0.181-3.998-0.557c-0.267-0.072-0.424-0.347-0.352-0.613c0.072-0.267,0.347-0.424,0.613-0.352c4.595,1.245,8.842,0.154,9.877-2.535c1.188-3.087-2.032-7.21-7.178-9.19c-1.212-0.468-2.447-0.783-3.671-0.938c-0.274-0.035-0.468-0.285-0.433-0.559c0.036-0.274,0.285-0.469,0.559-0.434c1.303,0.165,2.617,0.5,3.904,0.996c5.661,2.179,9.138,6.882,7.752,10.483C22.783,22.664,20.046,24.003,16.615,24.004z"/></svg>